<svg xmlns="http://www.w3.org/2000/svg" width="33" height="33" viewBox="0 0 33 33"><defs><style>.a{fill:#535353;}.b{fill:#fff;}</style></defs><circle class="a" cx="16.5" cy="16.5" r="16.5"/><path class="b" d="M7.608,12.061a3.251,3.251,0,0,1,.734-2.08A3.188,3.188,0,0,1,10.2,8.817a4.046,4.046,0,0,1,6.454-2.311,3.955,3.955,0,0,1,1.428,2.22H18.3A3.258,3.258,0,0,1,20.68,9.7a3.2,3.2,0,0,1,.982,2.352,3.253,3.253,0,0,1-.305,1.4,3.377,3.377,0,0,1-.85,1.131v.025a2.07,2.07,0,0,1-.462,1.312,2.007,2.007,0,0,1-1.155.734,2.574,2.574,0,0,1-2.1,1.964,1.443,1.443,0,0,1-1.081,2.385,1.36,1.36,0,0,1-1.015-.429,1.4,1.4,0,0,1-.421-1.023,1.347,1.347,0,0,1,.083-.47h-.083a1.775,1.775,0,0,1-1.758-1.758,1.6,1.6,0,0,1,.248-.883,2.05,2.05,0,0,1-.924-1.032H10.785V15.4a3.323,3.323,0,0,1-2.253-1.048A3.184,3.184,0,0,1,7.608,12.061Zm1.155-.206a2.367,2.367,0,0,0,2.368,2.377,2.32,2.32,0,0,0,1.131-.281,2.529,2.529,0,0,0,.858,1.535,2.448,2.448,0,0,0,1.667.611,2.5,2.5,0,0,0,1.832-.759,1.591,1.591,0,0,0,1.271.586,1.691,1.691,0,0,0,1.7-1.7,2.374,2.374,0,0,0,.784-.858,2.327,2.327,0,0,0,.289-1.131,2.232,2.232,0,0,0-.7-1.667,2.349,2.349,0,0,0-1.692-.685,2.323,2.323,0,0,0-1.263.363,2.729,2.729,0,0,0,.066-.652,2.743,2.743,0,0,0-.85-2.03,2.931,2.931,0,0,0-4.06-.033,2.724,2.724,0,0,0-.883,1.956h-.14a2.3,2.3,0,0,0-1.675.693A2.276,2.276,0,0,0,8.763,11.854Z" transform="translate(1.332 3.3)"/></svg>